<?xml version="1.0"?><svg xmlns="http://www.w3.org/2000/svg" width="228" height="263"><rect x="0" y="0" width="100%" height="100%" fill="rgb(162, 155, 254)" /><polyline points="0,21.939310229206,12.666666666667,0,38,0,50.666666666667,21.939310229206,38,43.878620458412,12.666666666667,43.878620458412,0,21.939310229206" stroke="#000" stroke-opacity="0.02" fill-opacity="0.063333333333333" fill="#222" transform="translate(-25.333333333333, -21.939310229206)" /><polyline points="0,21.939310229206,12.666666666667,0,38,0,50.666666666667,21.939310229206,38,43.878620458412,12.666666666667,43.878620458412,0,21.939310229206" stroke="#000" stroke-opacity="0.02" fill-opacity="0.063333333333333" fill="#222" transform="translate(202.66666666667, -21.939310229206)" /><polyline points="0,21.939310229206,12.666666666667,0,38,0,50.666666666667,21.939310229206,38,43.878620458412,12.666666666667,43.878620458412,0,21.939310229206" stroke="#000" stroke-opacity="0.02" fill-opacity="0.063333333333333" fill="#222" transform="translate(-25.333333333333, 241.33241252126)" /><polyline points="0,21.939310229206,12.666666666667,0,38,0,50.666666666667,21.939310229206,38,43.878620458412,12.666666666667,43.878620458412,0,21.939310229206" stroke="#000" stroke-opacity="0.02" fill-opacity="0.063333333333333" fill="#222" transform="translate(202.66666666667, 241.33241252126)" /><polyline points="0,21.939310229206,12.666666666667,0,38,0,50.666666666667,21.939310229206,38,43.878620458412,12.666666666667,43.878620458412,0,21.939310229206" stroke="#000" stroke-opacity="0.02" fill-opacity="0.15" fill="#222" transform="translate(12.666666666667, 0)" /><polyline points="0,21.939310229206,12.666666666667,0,38,0,50.666666666667,21.939310229206,38,43.878620458412,12.666666666667,43.878620458412,0,21.939310229206" stroke="#000" stroke-opacity="0.02" fill-opacity="0.15" fill="#222" transform="translate(12.666666666667, 263.27172275047)" /><polyline points="0,21.939310229206,12.666666666667,0,38,0,50.666666666667,21.939310229206,38,43.878620458412,12.666666666667,43.878620458412,0,21.939310229206" stroke="#000" stroke-opacity="0.02" fill-opacity="0.13266666666667" fill="#222" transform="translate(50.666666666667, -21.939310229206)" /><polyline points="0,21.939310229206,12.666666666667,0,38,0,50.666666666667,21.939310229206,38,43.878620458412,12.666666666667,43.878620458412,0,21.939310229206" stroke="#000" stroke-opacity="0.02" fill-opacity="0.13266666666667" fill="#222" transform="translate(50.666666666667, 241.33241252126)" /><polyline points="0,21.939310229206,12.666666666667,0,38,0,50.666666666667,21.939310229206,38,43.878620458412,12.666666666667,43.878620458412,0,21.939310229206" stroke="#000" stroke-opacity="0.02" fill-opacity="0.02" fill="#ddd" transform="translate(88.666666666667, 0)" /><polyline points="0,21.939310229206,12.666666666667,0,38,0,50.666666666667,21.939310229206,38,43.878620458412,12.666666666667,43.878620458412,0,21.939310229206" stroke="#000" stroke-opacity="0.02" fill-opacity="0.02" fill="#ddd" transform="translate(88.666666666667, 263.27172275047)" /><polyline points="0,21.939310229206,12.666666666667,0,38,0,50.666666666667,21.939310229206,38,43.878620458412,12.666666666667,43.878620458412,0,21.939310229206" stroke="#000" stroke-opacity="0.02" fill-opacity="0.063333333333333" fill="#222" transform="translate(126.66666666667, -21.939310229206)" /><polyline points="0,21.939310229206,12.666666666667,0,38,0,50.666666666667,21.939310229206,38,43.878620458412,12.666666666667,43.878620458412,0,21.939310229206" stroke="#000" stroke-opacity="0.02" fill-opacity="0.063333333333333" fill="#222" transform="translate(126.66666666667, 241.33241252126)" /><polyline points="0,21.939310229206,12.666666666667,0,38,0,50.666666666667,21.939310229206,38,43.878620458412,12.666666666667,43.878620458412,0,21.939310229206" stroke="#000" stroke-opacity="0.02" fill-opacity="0.080666666666667" fill="#222" transform="translate(164.66666666667, 0)" /><polyline points="0,21.939310229206,12.666666666667,0,38,0,50.666666666667,21.939310229206,38,43.878620458412,12.666666666667,43.878620458412,0,21.939310229206" stroke="#000" stroke-opacity="0.02" fill-opacity="0.080666666666667" fill="#222" transform="translate(164.66666666667, 263.27172275047)" /><polyline points="0,21.939310229206,12.666666666667,0,38,0,50.666666666667,21.939310229206,38,43.878620458412,12.666666666667,43.878620458412,0,21.939310229206" stroke="#000" stroke-opacity="0.02" fill-opacity="0.10666666666667" fill="#ddd" transform="translate(-25.333333333333, 21.939310229206)" /><polyline points="0,21.939310229206,12.666666666667,0,38,0,50.666666666667,21.939310229206,38,43.878620458412,12.666666666667,43.878620458412,0,21.939310229206" stroke="#000" stroke-opacity="0.02" fill-opacity="0.10666666666667" fill="#ddd" transform="translate(202.66666666667, 21.939310229206)" /><polyline points="0,21.939310229206,12.666666666667,0,38,0,50.666666666667,21.939310229206,38,43.878620458412,12.666666666667,43.878620458412,0,21.939310229206" stroke="#000" stroke-opacity="0.02" fill-opacity="0.072" fill="#ddd" transform="translate(12.666666666667, 43.878620458412)" /><polyline points="0,21.939310229206,12.666666666667,0,38,0,50.666666666667,21.939310229206,38,43.878620458412,12.666666666667,43.878620458412,0,21.939310229206" stroke="#000" stroke-opacity="0.02" fill-opacity="0.15" fill="#222" transform="translate(50.666666666667, 21.939310229206)" /><polyline points="0,21.939310229206,12.666666666667,0,38,0,50.666666666667,21.939310229206,38,43.878620458412,12.666666666667,43.878620458412,0,21.939310229206" stroke="#000" stroke-opacity="0.02" fill-opacity="0.15" fill="#222" transform="translate(88.666666666667, 43.878620458412)" /><polyline points="0,21.939310229206,12.666666666667,0,38,0,50.666666666667,21.939310229206,38,43.878620458412,12.666666666667,43.878620458412,0,21.939310229206" stroke="#000" stroke-opacity="0.02" fill-opacity="0.098" fill="#222" transform="translate(126.66666666667, 21.939310229206)" /><polyline points="0,21.939310229206,12.666666666667,0,38,0,50.666666666667,21.939310229206,38,43.878620458412,12.666666666667,43.878620458412,0,21.939310229206" stroke="#000" stroke-opacity="0.02" fill-opacity="0.13266666666667" fill="#222" transform="translate(164.66666666667, 43.878620458412)" /><polyline points="0,21.939310229206,12.666666666667,0,38,0,50.666666666667,21.939310229206,38,43.878620458412,12.666666666667,43.878620458412,0,21.939310229206" stroke="#000" stroke-opacity="0.02" fill-opacity="0.124" fill="#ddd" transform="translate(-25.333333333333, 65.817930687617)" /><polyline points="0,21.939310229206,12.666666666667,0,38,0,50.666666666667,21.939310229206,38,43.878620458412,12.666666666667,43.878620458412,0,21.939310229206" stroke="#000" stroke-opacity="0.02" fill-opacity="0.124" fill="#ddd" transform="translate(202.66666666667, 65.817930687617)" /><polyline points="0,21.939310229206,12.666666666667,0,38,0,50.666666666667,21.939310229206,38,43.878620458412,12.666666666667,43.878620458412,0,21.939310229206" stroke="#000" stroke-opacity="0.02" fill-opacity="0.080666666666667" fill="#222" transform="translate(12.666666666667, 87.757240916823)" /><polyline points="0,21.939310229206,12.666666666667,0,38,0,50.666666666667,21.939310229206,38,43.878620458412,12.666666666667,43.878620458412,0,21.939310229206" stroke="#000" stroke-opacity="0.02" fill-opacity="0.10666666666667" fill="#ddd" transform="translate(50.666666666667, 65.817930687617)" /><polyline points="0,21.939310229206,12.666666666667,0,38,0,50.666666666667,21.939310229206,38,43.878620458412,12.666666666667,43.878620458412,0,21.939310229206" stroke="#000" stroke-opacity="0.02" fill-opacity="0.028666666666667" fill="#222" transform="translate(88.666666666667, 87.757240916823)" /><polyline points="0,21.939310229206,12.666666666667,0,38,0,50.666666666667,21.939310229206,38,43.878620458412,12.666666666667,43.878620458412,0,21.939310229206" stroke="#000" stroke-opacity="0.02" fill-opacity="0.037333333333333" fill="#ddd" transform="translate(126.66666666667, 65.817930687617)" /><polyline points="0,21.939310229206,12.666666666667,0,38,0,50.666666666667,21.939310229206,38,43.878620458412,12.666666666667,43.878620458412,0,21.939310229206" stroke="#000" stroke-opacity="0.02" fill-opacity="0.054666666666667" fill="#ddd" transform="translate(164.66666666667, 87.757240916823)" /><polyline points="0,21.939310229206,12.666666666667,0,38,0,50.666666666667,21.939310229206,38,43.878620458412,12.666666666667,43.878620458412,0,21.939310229206" stroke="#000" stroke-opacity="0.02" fill-opacity="0.15" fill="#222" transform="translate(-25.333333333333, 109.69655114603)" /><polyline points="0,21.939310229206,12.666666666667,0,38,0,50.666666666667,21.939310229206,38,43.878620458412,12.666666666667,43.878620458412,0,21.939310229206" stroke="#000" stroke-opacity="0.02" fill-opacity="0.15" fill="#222" transform="translate(202.66666666667, 109.69655114603)" /><polyline points="0,21.939310229206,12.666666666667,0,38,0,50.666666666667,21.939310229206,38,43.878620458412,12.666666666667,43.878620458412,0,21.939310229206" stroke="#000" stroke-opacity="0.02" fill-opacity="0.10666666666667" fill="#ddd" transform="translate(12.666666666667, 131.63586137523)" /><polyline points="0,21.939310229206,12.666666666667,0,38,0,50.666666666667,21.939310229206,38,43.878620458412,12.666666666667,43.878620458412,0,21.939310229206" stroke="#000" stroke-opacity="0.02" fill-opacity="0.063333333333333" fill="#222" transform="translate(50.666666666667, 109.69655114603)" /><polyline points="0,21.939310229206,12.666666666667,0,38,0,50.666666666667,21.939310229206,38,43.878620458412,12.666666666667,43.878620458412,0,21.939310229206" stroke="#000" stroke-opacity="0.02" fill-opacity="0.124" fill="#ddd" transform="translate(88.666666666667, 131.63586137523)" /><polyline points="0,21.939310229206,12.666666666667,0,38,0,50.666666666667,21.939310229206,38,43.878620458412,12.666666666667,43.878620458412,0,21.939310229206" stroke="#000" stroke-opacity="0.02" fill-opacity="0.089333333333333" fill="#ddd" transform="translate(126.66666666667, 109.69655114603)" /><polyline points="0,21.939310229206,12.666666666667,0,38,0,50.666666666667,21.939310229206,38,43.878620458412,12.666666666667,43.878620458412,0,21.939310229206" stroke="#000" stroke-opacity="0.02" fill-opacity="0.028666666666667" fill="#222" transform="translate(164.66666666667, 131.63586137523)" /><polyline points="0,21.939310229206,12.666666666667,0,38,0,50.666666666667,21.939310229206,38,43.878620458412,12.666666666667,43.878620458412,0,21.939310229206" stroke="#000" stroke-opacity="0.02" fill-opacity="0.054666666666667" fill="#ddd" transform="translate(-25.333333333333, 153.57517160444)" /><polyline points="0,21.939310229206,12.666666666667,0,38,0,50.666666666667,21.939310229206,38,43.878620458412,12.666666666667,43.878620458412,0,21.939310229206" stroke="#000" stroke-opacity="0.02" fill-opacity="0.054666666666667" fill="#ddd" transform="translate(202.66666666667, 153.57517160444)" /><polyline points="0,21.939310229206,12.666666666667,0,38,0,50.666666666667,21.939310229206,38,43.878620458412,12.666666666667,43.878620458412,0,21.939310229206" stroke="#000" stroke-opacity="0.02" fill-opacity="0.080666666666667" fill="#222" transform="translate(12.666666666667, 175.51448183365)" /><polyline points="0,21.939310229206,12.666666666667,0,38,0,50.666666666667,21.939310229206,38,43.878620458412,12.666666666667,43.878620458412,0,21.939310229206" stroke="#000" stroke-opacity="0.02" fill-opacity="0.072" fill="#ddd" transform="translate(50.666666666667, 153.57517160444)" /><polyline points="0,21.939310229206,12.666666666667,0,38,0,50.666666666667,21.939310229206,38,43.878620458412,12.666666666667,43.878620458412,0,21.939310229206" stroke="#000" stroke-opacity="0.02" fill-opacity="0.063333333333333" fill="#222" transform="translate(88.666666666667, 175.51448183365)" /><polyline points="0,21.939310229206,12.666666666667,0,38,0,50.666666666667,21.939310229206,38,43.878620458412,12.666666666667,43.878620458412,0,21.939310229206" stroke="#000" stroke-opacity="0.02" fill-opacity="0.10666666666667" fill="#ddd" transform="translate(126.66666666667, 153.57517160444)" /><polyline points="0,21.939310229206,12.666666666667,0,38,0,50.666666666667,21.939310229206,38,43.878620458412,12.666666666667,43.878620458412,0,21.939310229206" stroke="#000" stroke-opacity="0.02" fill-opacity="0.054666666666667" fill="#ddd" transform="translate(164.66666666667, 175.51448183365)" /><polyline points="0,21.939310229206,12.666666666667,0,38,0,50.666666666667,21.939310229206,38,43.878620458412,12.666666666667,43.878620458412,0,21.939310229206" stroke="#000" stroke-opacity="0.02" fill-opacity="0.098" fill="#222" transform="translate(-25.333333333333, 197.45379206285)" /><polyline points="0,21.939310229206,12.666666666667,0,38,0,50.666666666667,21.939310229206,38,43.878620458412,12.666666666667,43.878620458412,0,21.939310229206" stroke="#000" stroke-opacity="0.02" fill-opacity="0.098" fill="#222" transform="translate(202.66666666667, 197.45379206285)" /><polyline points="0,21.939310229206,12.666666666667,0,38,0,50.666666666667,21.939310229206,38,43.878620458412,12.666666666667,43.878620458412,0,21.939310229206" stroke="#000" stroke-opacity="0.02" fill-opacity="0.089333333333333" fill="#ddd" transform="translate(12.666666666667, 219.39310229206)" /><polyline points="0,21.939310229206,12.666666666667,0,38,0,50.666666666667,21.939310229206,38,43.878620458412,12.666666666667,43.878620458412,0,21.939310229206" stroke="#000" stroke-opacity="0.02" fill-opacity="0.14133333333333" fill="#ddd" transform="translate(50.666666666667, 197.45379206285)" /><polyline points="0,21.939310229206,12.666666666667,0,38,0,50.666666666667,21.939310229206,38,43.878620458412,12.666666666667,43.878620458412,0,21.939310229206" stroke="#000" stroke-opacity="0.02" fill-opacity="0.063333333333333" fill="#222" transform="translate(88.666666666667, 219.39310229206)" /><polyline points="0,21.939310229206,12.666666666667,0,38,0,50.666666666667,21.939310229206,38,43.878620458412,12.666666666667,43.878620458412,0,21.939310229206" stroke="#000" stroke-opacity="0.02" fill-opacity="0.10666666666667" fill="#ddd" transform="translate(126.66666666667, 197.45379206285)" /><polyline points="0,21.939310229206,12.666666666667,0,38,0,50.666666666667,21.939310229206,38,43.878620458412,12.666666666667,43.878620458412,0,21.939310229206" stroke="#000" stroke-opacity="0.02" fill-opacity="0.10666666666667" fill="#ddd" transform="translate(164.66666666667, 219.39310229206)" /></svg>