<?xml version="1.0"?><svg xmlns="http://www.w3.org/2000/svg" width="228" height="228"><rect x="0" y="0" width="100%" height="100%" fill="rgb(9, 132, 227)" /><g fill="#222" stroke="#000" stroke-opacity="0.02" style="fill-opacity:0.098;" transform="translate(-19, -28.5)" ><rect x="19" y="0" width="19" height="57" /><rect x="0" y="19" width="57" height="19" /></g><g fill="#222" stroke="#000" stroke-opacity="0.02" style="fill-opacity:0.098;" transform="translate(209, -28.5)" ><rect x="19" y="0" width="19" height="57" /><rect x="0" y="19" width="57" height="19" /></g><g fill="#222" stroke="#000" stroke-opacity="0.02" style="fill-opacity:0.098;" transform="translate(-19, 199.5)" ><rect x="19" y="0" width="19" height="57" /><rect x="0" y="19" width="57" height="19" /></g><g fill="#222" stroke="#000" stroke-opacity="0.02" style="fill-opacity:0.098;" transform="translate(209, 199.5)" ><rect x="19" y="0" width="19" height="57" /><rect x="0" y="19" width="57" height="19" /></g><g fill="#ddd" stroke="#000" stroke-opacity="0.02" style="fill-opacity:0.124;" transform="translate(19, -28.5)" ><rect x="19" y="0" width="19" height="57" /><rect x="0" y="19" width="57" height="19" /></g><g fill="#ddd" stroke="#000" stroke-opacity="0.02" style="fill-opacity:0.124;" transform="translate(19, 199.5)" ><rect x="19" y="0" width="19" height="57" /><rect x="0" y="19" width="57" height="19" /></g><g fill="#222" stroke="#000" stroke-opacity="0.02" style="fill-opacity:0.13266666666667;" transform="translate(57, -28.5)" ><rect x="19" y="0" width="19" height="57" /><rect x="0" y="19" width="57" height="19" /></g><g fill="#222" stroke="#000" stroke-opacity="0.02" style="fill-opacity:0.13266666666667;" transform="translate(57, 199.5)" ><rect x="19" y="0" width="19" height="57" /><rect x="0" y="19" width="57" height="19" /></g><g fill="#222" stroke="#000" stroke-opacity="0.02" style="fill-opacity:0.13266666666667;" transform="translate(95, -28.5)" ><rect x="19" y="0" width="19" height="57" /><rect x="0" y="19" width="57" height="19" /></g><g fill="#222" stroke="#000" stroke-opacity="0.02" style="fill-opacity:0.13266666666667;" transform="translate(95, 199.5)" ><rect x="19" y="0" width="19" height="57" /><rect x="0" y="19" width="57" height="19" /></g><g fill="#ddd" stroke="#000" stroke-opacity="0.02" style="fill-opacity:0.10666666666667;" transform="translate(133, -28.5)" ><rect x="19" y="0" width="19" height="57" /><rect x="0" y="19" width="57" height="19" /></g><g fill="#ddd" stroke="#000" stroke-opacity="0.02" style="fill-opacity:0.10666666666667;" transform="translate(133, 199.5)" ><rect x="19" y="0" width="19" height="57" /><rect x="0" y="19" width="57" height="19" /></g><g fill="#ddd" stroke="#000" stroke-opacity="0.02" style="fill-opacity:0.072;" transform="translate(171, -28.5)" ><rect x="19" y="0" width="19" height="57" /><rect x="0" y="19" width="57" height="19" /></g><g fill="#ddd" stroke="#000" stroke-opacity="0.02" style="fill-opacity:0.072;" transform="translate(171, 199.5)" ><rect x="19" y="0" width="19" height="57" /><rect x="0" y="19" width="57" height="19" /></g><g fill="#222" stroke="#000" stroke-opacity="0.02" style="fill-opacity:0.080666666666667;" transform="translate(0, 9.5)" ><rect x="19" y="0" width="19" height="57" /><rect x="0" y="19" width="57" height="19" /></g><g fill="#222" stroke="#000" stroke-opacity="0.02" style="fill-opacity:0.080666666666667;" transform="translate(228, 9.5)" ><rect x="19" y="0" width="19" height="57" /><rect x="0" y="19" width="57" height="19" /></g><g fill="#222" stroke="#000" stroke-opacity="0.02" style="fill-opacity:0.13266666666667;" transform="translate(38, 9.5)" ><rect x="19" y="0" width="19" height="57" /><rect x="0" y="19" width="57" height="19" /></g><g fill="#ddd" stroke="#000" stroke-opacity="0.02" style="fill-opacity:0.14133333333333;" transform="translate(76, 9.5)" ><rect x="19" y="0" width="19" height="57" /><rect x="0" y="19" width="57" height="19" /></g><g fill="#222" stroke="#000" stroke-opacity="0.02" style="fill-opacity:0.13266666666667;" transform="translate(114, 9.5)" ><rect x="19" y="0" width="19" height="57" /><rect x="0" y="19" width="57" height="19" /></g><g fill="#222" stroke="#000" stroke-opacity="0.02" style="fill-opacity:0.046;" transform="translate(152, 9.5)" ><rect x="19" y="0" width="19" height="57" /><rect x="0" y="19" width="57" height="19" /></g><g fill="#222" stroke="#000" stroke-opacity="0.02" style="fill-opacity:0.15;" transform="translate(190, 9.5)" ><rect x="19" y="0" width="19" height="57" /><rect x="0" y="19" width="57" height="19" /></g><g fill="#ddd" stroke="#000" stroke-opacity="0.02" style="fill-opacity:0.037333333333333;" transform="translate(-19, 47.5)" ><rect x="19" y="0" width="19" height="57" /><rect x="0" y="19" width="57" height="19" /></g><g fill="#ddd" stroke="#000" stroke-opacity="0.02" style="fill-opacity:0.037333333333333;" transform="translate(209, 47.5)" ><rect x="19" y="0" width="19" height="57" /><rect x="0" y="19" width="57" height="19" /></g><g fill="#222" stroke="#000" stroke-opacity="0.02" style="fill-opacity:0.063333333333333;" transform="translate(19, 47.5)" ><rect x="19" y="0" width="19" height="57" /><rect x="0" y="19" width="57" height="19" /></g><g fill="#ddd" stroke="#000" stroke-opacity="0.02" style="fill-opacity:0.089333333333333;" transform="translate(57, 47.5)" ><rect x="19" y="0" width="19" height="57" /><rect x="0" y="19" width="57" height="19" /></g><g fill="#222" stroke="#000" stroke-opacity="0.02" style="fill-opacity:0.028666666666667;" transform="translate(95, 47.5)" ><rect x="19" y="0" width="19" height="57" /><rect x="0" y="19" width="57" height="19" /></g><g fill="#222" stroke="#000" stroke-opacity="0.02" style="fill-opacity:0.028666666666667;" transform="translate(133, 47.5)" ><rect x="19" y="0" width="19" height="57" /><rect x="0" y="19" width="57" height="19" /></g><g fill="#222" stroke="#000" stroke-opacity="0.02" style="fill-opacity:0.080666666666667;" transform="translate(171, 47.5)" ><rect x="19" y="0" width="19" height="57" /><rect x="0" y="19" width="57" height="19" /></g><g fill="#ddd" stroke="#000" stroke-opacity="0.02" style="fill-opacity:0.037333333333333;" transform="translate(0, 85.5)" ><rect x="19" y="0" width="19" height="57" /><rect x="0" y="19" width="57" height="19" /></g><g fill="#ddd" stroke="#000" stroke-opacity="0.02" style="fill-opacity:0.037333333333333;" transform="translate(228, 85.5)" ><rect x="19" y="0" width="19" height="57" /><rect x="0" y="19" width="57" height="19" /></g><g fill="#ddd" stroke="#000" stroke-opacity="0.02" style="fill-opacity:0.089333333333333;" transform="translate(38, 85.5)" ><rect x="19" y="0" width="19" height="57" /><rect x="0" y="19" width="57" height="19" /></g><g fill="#ddd" stroke="#000" stroke-opacity="0.02" style="fill-opacity:0.037333333333333;" transform="translate(76, 85.5)" ><rect x="19" y="0" width="19" height="57" /><rect x="0" y="19" width="57" height="19" /></g><g fill="#222" stroke="#000" stroke-opacity="0.02" style="fill-opacity:0.080666666666667;" transform="translate(114, 85.5)" ><rect x="19" y="0" width="19" height="57" /><rect x="0" y="19" width="57" height="19" /></g><g fill="#ddd" stroke="#000" stroke-opacity="0.02" style="fill-opacity:0.072;" transform="translate(152, 85.5)" ><rect x="19" y="0" width="19" height="57" /><rect x="0" y="19" width="57" height="19" /></g><g fill="#ddd" stroke="#000" stroke-opacity="0.02" style="fill-opacity:0.124;" transform="translate(190, 85.5)" ><rect x="19" y="0" width="19" height="57" /><rect x="0" y="19" width="57" height="19" /></g><g fill="#ddd" stroke="#000" stroke-opacity="0.02" style="fill-opacity:0.14133333333333;" transform="translate(-19, 123.5)" ><rect x="19" y="0" width="19" height="57" /><rect x="0" y="19" width="57" height="19" /></g><g fill="#ddd" stroke="#000" stroke-opacity="0.02" style="fill-opacity:0.14133333333333;" transform="translate(209, 123.5)" ><rect x="19" y="0" width="19" height="57" /><rect x="0" y="19" width="57" height="19" /></g><g fill="#222" stroke="#000" stroke-opacity="0.02" style="fill-opacity:0.15;" transform="translate(19, 123.5)" ><rect x="19" y="0" width="19" height="57" /><rect x="0" y="19" width="57" height="19" /></g><g fill="#ddd" stroke="#000" stroke-opacity="0.02" style="fill-opacity:0.10666666666667;" transform="translate(57, 123.5)" ><rect x="19" y="0" width="19" height="57" /><rect x="0" y="19" width="57" height="19" /></g><g fill="#222" stroke="#000" stroke-opacity="0.02" style="fill-opacity:0.080666666666667;" transform="translate(95, 123.5)" ><rect x="19" y="0" width="19" height="57" /><rect x="0" y="19" width="57" height="19" /></g><g fill="#ddd" stroke="#000" stroke-opacity="0.02" style="fill-opacity:0.072;" transform="translate(133, 123.5)" ><rect x="19" y="0" width="19" height="57" /><rect x="0" y="19" width="57" height="19" /></g><g fill="#222" stroke="#000" stroke-opacity="0.02" style="fill-opacity:0.11533333333333;" transform="translate(171, 123.5)" ><rect x="19" y="0" width="19" height="57" /><rect x="0" y="19" width="57" height="19" /></g><g fill="#ddd" stroke="#000" stroke-opacity="0.02" style="fill-opacity:0.089333333333333;" transform="translate(0, 161.5)" ><rect x="19" y="0" width="19" height="57" /><rect x="0" y="19" width="57" height="19" /></g><g fill="#ddd" stroke="#000" stroke-opacity="0.02" style="fill-opacity:0.089333333333333;" transform="translate(228, 161.5)" ><rect x="19" y="0" width="19" height="57" /><rect x="0" y="19" width="57" height="19" /></g><g fill="#ddd" stroke="#000" stroke-opacity="0.02" style="fill-opacity:0.02;" transform="translate(38, 161.5)" ><rect x="19" y="0" width="19" height="57" /><rect x="0" y="19" width="57" height="19" /></g><g fill="#222" stroke="#000" stroke-opacity="0.02" style="fill-opacity:0.098;" transform="translate(76, 161.5)" ><rect x="19" y="0" width="19" height="57" /><rect x="0" y="19" width="57" height="19" /></g><g fill="#222" stroke="#000" stroke-opacity="0.02" style="fill-opacity:0.028666666666667;" transform="translate(114, 161.5)" ><rect x="19" y="0" width="19" height="57" /><rect x="0" y="19" width="57" height="19" /></g><g fill="#222" stroke="#000" stroke-opacity="0.02" style="fill-opacity:0.046;" transform="translate(152, 161.5)" ><rect x="19" y="0" width="19" height="57" /><rect x="0" y="19" width="57" height="19" /></g><g fill="#222" stroke="#000" stroke-opacity="0.02" style="fill-opacity:0.11533333333333;" transform="translate(190, 161.5)" ><rect x="19" y="0" width="19" height="57" /><rect x="0" y="19" width="57" height="19" /></g></svg>