<?xml version="1.0"?><svg xmlns="http://www.w3.org/2000/svg" width="165" height="191"><rect x="0" y="0" width="100%" height="100%" fill="rgb(116, 185, 255)" /><polyline points="0,15.934867429634,9.2,0,27.6,0,36.8,15.934867429634,27.6,31.869734859267,9.2,31.869734859267,0,15.934867429634" stroke="#000" stroke-opacity="0.02" fill-opacity="0.046" fill="#222" transform="translate(-18.4, -15.934867429634)" /><polyline points="0,15.934867429634,9.2,0,27.6,0,36.8,15.934867429634,27.6,31.869734859267,9.2,31.869734859267,0,15.934867429634" stroke="#000" stroke-opacity="0.02" fill-opacity="0.046" fill="#222" transform="translate(147.2, -15.934867429634)" /><polyline points="0,15.934867429634,9.2,0,27.6,0,36.8,15.934867429634,27.6,31.869734859267,9.2,31.869734859267,0,15.934867429634" stroke="#000" stroke-opacity="0.02" fill-opacity="0.046" fill="#222" transform="translate(-18.4, 175.28354172597)" /><polyline points="0,15.934867429634,9.2,0,27.6,0,36.8,15.934867429634,27.6,31.869734859267,9.2,31.869734859267,0,15.934867429634" stroke="#000" stroke-opacity="0.02" fill-opacity="0.046" fill="#222" transform="translate(147.2, 175.28354172597)" /><polyline points="0,15.934867429634,9.2,0,27.6,0,36.8,15.934867429634,27.6,31.869734859267,9.2,31.869734859267,0,15.934867429634" stroke="#000" stroke-opacity="0.02" fill-opacity="0.037333333333333" fill="#ddd" transform="translate(9.2, 0)" /><polyline points="0,15.934867429634,9.2,0,27.6,0,36.8,15.934867429634,27.6,31.869734859267,9.2,31.869734859267,0,15.934867429634" stroke="#000" stroke-opacity="0.02" fill-opacity="0.037333333333333" fill="#ddd" transform="translate(9.2, 191.2184091556)" /><polyline points="0,15.934867429634,9.2,0,27.6,0,36.8,15.934867429634,27.6,31.869734859267,9.2,31.869734859267,0,15.934867429634" stroke="#000" stroke-opacity="0.02" fill-opacity="0.10666666666667" fill="#ddd" transform="translate(36.8, -15.934867429634)" /><polyline points="0,15.934867429634,9.2,0,27.6,0,36.8,15.934867429634,27.6,31.869734859267,9.2,31.869734859267,0,15.934867429634" stroke="#000" stroke-opacity="0.02" fill-opacity="0.10666666666667" fill="#ddd" transform="translate(36.8, 175.28354172597)" /><polyline points="0,15.934867429634,9.2,0,27.6,0,36.8,15.934867429634,27.6,31.869734859267,9.2,31.869734859267,0,15.934867429634" stroke="#000" stroke-opacity="0.02" fill-opacity="0.080666666666667" fill="#222" transform="translate(64.4, 0)" /><polyline points="0,15.934867429634,9.2,0,27.6,0,36.8,15.934867429634,27.6,31.869734859267,9.2,31.869734859267,0,15.934867429634" stroke="#000" stroke-opacity="0.02" fill-opacity="0.080666666666667" fill="#222" transform="translate(64.4, 191.2184091556)" /><polyline points="0,15.934867429634,9.2,0,27.6,0,36.8,15.934867429634,27.6,31.869734859267,9.2,31.869734859267,0,15.934867429634" stroke="#000" stroke-opacity="0.02" fill-opacity="0.02" fill="#ddd" transform="translate(92, -15.934867429634)" /><polyline points="0,15.934867429634,9.2,0,27.6,0,36.8,15.934867429634,27.6,31.869734859267,9.2,31.869734859267,0,15.934867429634" stroke="#000" stroke-opacity="0.02" fill-opacity="0.02" fill="#ddd" transform="translate(92, 175.28354172597)" /><polyline points="0,15.934867429634,9.2,0,27.6,0,36.8,15.934867429634,27.6,31.869734859267,9.2,31.869734859267,0,15.934867429634" stroke="#000" stroke-opacity="0.02" fill-opacity="0.10666666666667" fill="#ddd" transform="translate(119.6, 0)" /><polyline points="0,15.934867429634,9.2,0,27.6,0,36.8,15.934867429634,27.6,31.869734859267,9.2,31.869734859267,0,15.934867429634" stroke="#000" stroke-opacity="0.02" fill-opacity="0.10666666666667" fill="#ddd" transform="translate(119.6, 191.2184091556)" /><polyline points="0,15.934867429634,9.2,0,27.6,0,36.8,15.934867429634,27.6,31.869734859267,9.2,31.869734859267,0,15.934867429634" stroke="#000" stroke-opacity="0.02" fill-opacity="0.046" fill="#222" transform="translate(-18.4, 15.934867429634)" /><polyline points="0,15.934867429634,9.2,0,27.6,0,36.8,15.934867429634,27.6,31.869734859267,9.2,31.869734859267,0,15.934867429634" stroke="#000" stroke-opacity="0.02" fill-opacity="0.046" fill="#222" transform="translate(147.2, 15.934867429634)" /><polyline points="0,15.934867429634,9.2,0,27.6,0,36.8,15.934867429634,27.6,31.869734859267,9.2,31.869734859267,0,15.934867429634" stroke="#000" stroke-opacity="0.02" fill-opacity="0.037333333333333" fill="#ddd" transform="translate(9.2, 31.869734859267)" /><polyline points="0,15.934867429634,9.2,0,27.6,0,36.8,15.934867429634,27.6,31.869734859267,9.2,31.869734859267,0,15.934867429634" stroke="#000" stroke-opacity="0.02" fill-opacity="0.13266666666667" fill="#222" transform="translate(36.8, 15.934867429634)" /><polyline points="0,15.934867429634,9.2,0,27.6,0,36.8,15.934867429634,27.6,31.869734859267,9.2,31.869734859267,0,15.934867429634" stroke="#000" stroke-opacity="0.02" fill-opacity="0.10666666666667" fill="#ddd" transform="translate(64.4, 31.869734859267)" /><polyline points="0,15.934867429634,9.2,0,27.6,0,36.8,15.934867429634,27.6,31.869734859267,9.2,31.869734859267,0,15.934867429634" stroke="#000" stroke-opacity="0.02" fill-opacity="0.037333333333333" fill="#ddd" transform="translate(92, 15.934867429634)" /><polyline points="0,15.934867429634,9.2,0,27.6,0,36.8,15.934867429634,27.6,31.869734859267,9.2,31.869734859267,0,15.934867429634" stroke="#000" stroke-opacity="0.02" fill-opacity="0.080666666666667" fill="#222" transform="translate(119.6, 31.869734859267)" /><polyline points="0,15.934867429634,9.2,0,27.6,0,36.8,15.934867429634,27.6,31.869734859267,9.2,31.869734859267,0,15.934867429634" stroke="#000" stroke-opacity="0.02" fill-opacity="0.11533333333333" fill="#222" transform="translate(-18.4, 47.804602288901)" /><polyline points="0,15.934867429634,9.2,0,27.6,0,36.8,15.934867429634,27.6,31.869734859267,9.2,31.869734859267,0,15.934867429634" stroke="#000" stroke-opacity="0.02" fill-opacity="0.11533333333333" fill="#222" transform="translate(147.2, 47.804602288901)" /><polyline points="0,15.934867429634,9.2,0,27.6,0,36.8,15.934867429634,27.6,31.869734859267,9.2,31.869734859267,0,15.934867429634" stroke="#000" stroke-opacity="0.02" fill-opacity="0.046" fill="#222" transform="translate(9.2, 63.739469718535)" /><polyline points="0,15.934867429634,9.2,0,27.6,0,36.8,15.934867429634,27.6,31.869734859267,9.2,31.869734859267,0,15.934867429634" stroke="#000" stroke-opacity="0.02" fill-opacity="0.02" fill="#ddd" transform="translate(36.8, 47.804602288901)" /><polyline points="0,15.934867429634,9.2,0,27.6,0,36.8,15.934867429634,27.6,31.869734859267,9.2,31.869734859267,0,15.934867429634" stroke="#000" stroke-opacity="0.02" fill-opacity="0.10666666666667" fill="#ddd" transform="translate(64.4, 63.739469718535)" /><polyline points="0,15.934867429634,9.2,0,27.6,0,36.8,15.934867429634,27.6,31.869734859267,9.2,31.869734859267,0,15.934867429634" stroke="#000" stroke-opacity="0.02" fill-opacity="0.028666666666667" fill="#222" transform="translate(92, 47.804602288901)" /><polyline points="0,15.934867429634,9.2,0,27.6,0,36.8,15.934867429634,27.6,31.869734859267,9.2,31.869734859267,0,15.934867429634" stroke="#000" stroke-opacity="0.02" fill-opacity="0.02" fill="#ddd" transform="translate(119.6, 63.739469718535)" /><polyline points="0,15.934867429634,9.2,0,27.6,0,36.8,15.934867429634,27.6,31.869734859267,9.2,31.869734859267,0,15.934867429634" stroke="#000" stroke-opacity="0.02" fill-opacity="0.15" fill="#222" transform="translate(-18.4, 79.674337148168)" /><polyline points="0,15.934867429634,9.2,0,27.6,0,36.8,15.934867429634,27.6,31.869734859267,9.2,31.869734859267,0,15.934867429634" stroke="#000" stroke-opacity="0.02" fill-opacity="0.15" fill="#222" transform="translate(147.2, 79.674337148168)" /><polyline points="0,15.934867429634,9.2,0,27.6,0,36.8,15.934867429634,27.6,31.869734859267,9.2,31.869734859267,0,15.934867429634" stroke="#000" stroke-opacity="0.02" fill-opacity="0.14133333333333" fill="#ddd" transform="translate(9.2, 95.609204577802)" /><polyline points="0,15.934867429634,9.2,0,27.6,0,36.8,15.934867429634,27.6,31.869734859267,9.2,31.869734859267,0,15.934867429634" stroke="#000" stroke-opacity="0.02" fill-opacity="0.063333333333333" fill="#222" transform="translate(36.8, 79.674337148168)" /><polyline points="0,15.934867429634,9.2,0,27.6,0,36.8,15.934867429634,27.6,31.869734859267,9.2,31.869734859267,0,15.934867429634" stroke="#000" stroke-opacity="0.02" fill-opacity="0.054666666666667" fill="#ddd" transform="translate(64.4, 95.609204577802)" /><polyline points="0,15.934867429634,9.2,0,27.6,0,36.8,15.934867429634,27.6,31.869734859267,9.2,31.869734859267,0,15.934867429634" stroke="#000" stroke-opacity="0.02" fill-opacity="0.072" fill="#ddd" transform="translate(92, 79.674337148168)" /><polyline points="0,15.934867429634,9.2,0,27.6,0,36.8,15.934867429634,27.6,31.869734859267,9.2,31.869734859267,0,15.934867429634" stroke="#000" stroke-opacity="0.02" fill-opacity="0.14133333333333" fill="#ddd" transform="translate(119.6, 95.609204577802)" /><polyline points="0,15.934867429634,9.2,0,27.6,0,36.8,15.934867429634,27.6,31.869734859267,9.2,31.869734859267,0,15.934867429634" stroke="#000" stroke-opacity="0.02" fill-opacity="0.10666666666667" fill="#ddd" transform="translate(-18.4, 111.54407200744)" /><polyline points="0,15.934867429634,9.2,0,27.6,0,36.8,15.934867429634,27.6,31.869734859267,9.2,31.869734859267,0,15.934867429634" stroke="#000" stroke-opacity="0.02" fill-opacity="0.10666666666667" fill="#ddd" transform="translate(147.2, 111.54407200744)" /><polyline points="0,15.934867429634,9.2,0,27.6,0,36.8,15.934867429634,27.6,31.869734859267,9.2,31.869734859267,0,15.934867429634" stroke="#000" stroke-opacity="0.02" fill-opacity="0.13266666666667" fill="#222" transform="translate(9.2, 127.47893943707)" /><polyline points="0,15.934867429634,9.2,0,27.6,0,36.8,15.934867429634,27.6,31.869734859267,9.2,31.869734859267,0,15.934867429634" stroke="#000" stroke-opacity="0.02" fill-opacity="0.028666666666667" fill="#222" transform="translate(36.8, 111.54407200744)" /><polyline points="0,15.934867429634,9.2,0,27.6,0,36.8,15.934867429634,27.6,31.869734859267,9.2,31.869734859267,0,15.934867429634" stroke="#000" stroke-opacity="0.02" fill-opacity="0.037333333333333" fill="#ddd" transform="translate(64.4, 127.47893943707)" /><polyline points="0,15.934867429634,9.2,0,27.6,0,36.8,15.934867429634,27.6,31.869734859267,9.2,31.869734859267,0,15.934867429634" stroke="#000" stroke-opacity="0.02" fill-opacity="0.072" fill="#ddd" transform="translate(92, 111.54407200744)" /><polyline points="0,15.934867429634,9.2,0,27.6,0,36.8,15.934867429634,27.6,31.869734859267,9.2,31.869734859267,0,15.934867429634" stroke="#000" stroke-opacity="0.02" fill-opacity="0.15" fill="#222" transform="translate(119.6, 127.47893943707)" /><polyline points="0,15.934867429634,9.2,0,27.6,0,36.8,15.934867429634,27.6,31.869734859267,9.2,31.869734859267,0,15.934867429634" stroke="#000" stroke-opacity="0.02" fill-opacity="0.02" fill="#ddd" transform="translate(-18.4, 143.4138068667)" /><polyline points="0,15.934867429634,9.2,0,27.6,0,36.8,15.934867429634,27.6,31.869734859267,9.2,31.869734859267,0,15.934867429634" stroke="#000" stroke-opacity="0.02" fill-opacity="0.02" fill="#ddd" transform="translate(147.2, 143.4138068667)" /><polyline points="0,15.934867429634,9.2,0,27.6,0,36.8,15.934867429634,27.6,31.869734859267,9.2,31.869734859267,0,15.934867429634" stroke="#000" stroke-opacity="0.02" fill-opacity="0.080666666666667" fill="#222" transform="translate(9.2, 159.34867429634)" /><polyline points="0,15.934867429634,9.2,0,27.6,0,36.8,15.934867429634,27.6,31.869734859267,9.2,31.869734859267,0,15.934867429634" stroke="#000" stroke-opacity="0.02" fill-opacity="0.080666666666667" fill="#222" transform="translate(36.8, 143.4138068667)" /><polyline points="0,15.934867429634,9.2,0,27.6,0,36.8,15.934867429634,27.6,31.869734859267,9.2,31.869734859267,0,15.934867429634" stroke="#000" stroke-opacity="0.02" fill-opacity="0.089333333333333" fill="#ddd" transform="translate(64.4, 159.34867429634)" /><polyline points="0,15.934867429634,9.2,0,27.6,0,36.8,15.934867429634,27.6,31.869734859267,9.2,31.869734859267,0,15.934867429634" stroke="#000" stroke-opacity="0.02" fill-opacity="0.124" fill="#ddd" transform="translate(92, 143.4138068667)" /><polyline points="0,15.934867429634,9.2,0,27.6,0,36.8,15.934867429634,27.6,31.869734859267,9.2,31.869734859267,0,15.934867429634" stroke="#000" stroke-opacity="0.02" fill-opacity="0.063333333333333" fill="#222" transform="translate(119.6, 159.34867429634)" /></svg>